<svg width="237" height="46" viewBox="0 0 237 46" fill="none" xmlns="http://www.w3.org/2000/svg">
<path d="M64.4192 1.4821V23.1747C64.4192 26.4982 63.5059 29.0582 61.6795 30.8547C59.883 32.6511 57.3829 33.5494 54.1792 33.5494C50.706 33.5494 47.9514 32.5763 45.9154 30.6301C43.8793 28.654 42.8613 25.8245 42.8613 22.1417H50.4515C50.4515 25.1059 51.5743 26.588 53.8199 26.588C55.7661 26.588 56.7392 25.4502 56.7392 23.1747V1.4821H64.4192Z" fill="#88889B"/>
<path d="M80.3553 7.85963C82.2715 7.85963 83.9183 8.29378 85.2956 9.16208C86.6729 10.0304 87.6909 11.2131 88.3496 12.7101V8.17401H95.9847V33.235H88.3496V28.6989C87.6909 30.1959 86.6729 31.3786 85.2956 32.2469C83.9183 33.1152 82.2715 33.5494 80.3553 33.5494C78.2893 33.5494 76.4329 33.0404 74.7861 32.0224C73.1693 30.9744 71.8818 29.4773 70.9237 27.5312C69.9955 25.585 69.5314 23.3094 69.5314 20.7045C69.5314 18.0697 69.9955 15.7941 70.9237 13.8779C71.8818 11.9317 73.1693 10.4496 74.7861 9.43155C76.4329 8.3836 78.2893 7.85963 80.3553 7.85963ZM82.8254 14.5964C81.1786 14.5964 79.8463 15.1354 78.8282 16.2133C77.8402 17.2912 77.3461 18.7883 77.3461 20.7045C77.3461 22.6208 77.8402 24.1178 78.8282 25.1957C79.8463 26.2736 81.1786 26.8126 82.8254 26.8126C84.4423 26.8126 85.7597 26.2586 86.7777 25.1508C87.8256 24.043 88.3496 22.5609 88.3496 20.7045C88.3496 18.8182 87.8256 17.3361 86.7777 16.2582C85.7597 15.1504 84.4423 14.5964 82.8254 14.5964Z" fill="#88889B"/>
<path d="M113.938 7.85963C117.171 7.85963 119.881 8.75787 122.067 10.5544C124.252 12.3209 125.63 14.7611 126.199 17.875H118.07C117.83 16.7971 117.336 15.9588 116.587 15.36C115.839 14.7611 114.896 14.4617 113.758 14.4617C112.411 14.4617 111.303 15.0007 110.434 16.0786C109.566 17.1265 109.132 18.6685 109.132 20.7045C109.132 22.7405 109.566 24.2975 110.434 25.3754C111.303 26.4233 112.411 26.9473 113.758 26.9473C114.896 26.9473 115.839 26.6479 116.587 26.049C117.336 25.4502 117.83 24.6119 118.07 23.534H126.199C125.63 26.6479 124.252 29.1031 122.067 30.8996C119.881 32.6661 117.171 33.5494 113.938 33.5494C111.482 33.5494 109.297 33.0404 107.38 32.0224C105.494 30.9744 104.012 29.4773 102.934 27.5312C101.856 25.585 101.317 23.3094 101.317 20.7045C101.317 18.0697 101.841 15.7941 102.889 13.8779C103.967 11.9317 105.464 10.4496 107.38 9.43155C109.297 8.3836 111.482 7.85963 113.938 7.85963Z" fill="#88889B"/>
<path d="M146.735 33.235L139.235 22.5908V33.235H131.555V0H139.235V18.2343L146.735 8.17401H155.762L145.657 20.7045L155.987 33.235H146.735Z" fill="#88889B"/>
<path d="M175.768 7.85963C177.834 7.85963 179.676 8.3836 181.293 9.43155C182.939 10.4496 184.227 11.9317 185.155 13.8779C186.113 15.7941 186.592 18.0697 186.592 20.7045C186.592 23.3094 186.113 25.585 185.155 27.5312C184.227 29.4773 182.939 30.9744 181.293 32.0224C179.676 33.0404 177.834 33.5494 175.768 33.5494C173.852 33.5494 172.205 33.1152 170.828 32.2469C169.451 31.3786 168.448 30.1959 167.819 28.6989V45.1816H160.139V8.17401H167.819V12.7101C168.448 11.2131 169.451 10.0304 170.828 9.16208C172.205 8.29378 173.852 7.85963 175.768 7.85963ZM173.298 14.5964C171.681 14.5964 170.349 15.1504 169.301 16.2582C168.283 17.3361 167.774 18.8182 167.774 20.7045C167.774 22.5609 168.283 24.043 169.301 25.1508C170.349 26.2586 171.681 26.8126 173.298 26.8126C174.945 26.8126 176.262 26.2736 177.25 25.1957C178.268 24.1178 178.777 22.6208 178.777 20.7045C178.777 18.7883 178.268 17.2912 177.25 16.2133C176.262 15.1354 174.945 14.5964 173.298 14.5964Z" fill="#88889B"/>
<path d="M203.647 7.85963C206.132 7.85963 208.348 8.3836 210.294 9.43155C212.27 10.4496 213.812 11.9317 214.92 13.8779C216.058 15.824 216.626 18.0996 216.626 20.7045C216.626 23.3094 216.058 25.585 214.92 27.5312C213.812 29.4773 212.27 30.9744 210.294 32.0224C208.348 33.0404 206.132 33.5494 203.647 33.5494C201.162 33.5494 198.931 33.0404 196.955 32.0224C194.979 30.9744 193.422 29.4773 192.284 27.5312C191.176 25.585 190.622 23.3094 190.622 20.7045C190.622 18.0996 191.176 15.824 192.284 13.8779C193.422 11.9317 194.979 10.4496 196.955 9.43155C198.931 8.3836 201.162 7.85963 203.647 7.85963ZM203.647 14.5066C202.18 14.5066 200.937 15.0456 199.919 16.1235C198.931 17.1714 198.437 18.6984 198.437 20.7045C198.437 22.7106 198.931 24.2376 199.919 25.2855C200.937 26.3335 202.18 26.8575 203.647 26.8575C205.114 26.8575 206.342 26.3335 207.33 25.2855C208.318 24.2376 208.812 22.7106 208.812 20.7045C208.812 18.6984 208.318 17.1714 207.33 16.1235C206.342 15.0456 205.114 14.5066 203.647 14.5066Z" fill="#88889B"/>
<path d="M236.149 26.6329V33.235H232.69C229.756 33.235 227.465 32.5164 225.819 31.0792C224.202 29.6121 223.393 27.2018 223.393 23.8484V14.6414H220.025V8.17401H223.393V2.02104H231.073V8.17401H236.104V14.6414H231.073V23.9831C231.073 24.9712 231.268 25.6598 231.657 26.049C232.076 26.4383 232.765 26.6329 233.723 26.6329H236.149Z" fill="#88889B"/>
<path fill-rule="evenodd" clip-rule="evenodd" d="M18.0011 18.7503C23.372 20.3831 29.4203 16.1337 31.5104 9.25901C31.691 8.66496 31.8361 8.07074 31.9471 7.47977C34.0707 11.0033 34.7491 15.3789 33.4582 19.625C31.0416 27.5739 22.6387 32.0587 14.6898 29.6421C6.74086 27.2255 2.25605 18.8225 4.67266 10.8736C5.96356 6.62749 8.96263 3.36982 12.6882 1.62456C12.4515 2.17735 12.2413 2.75185 12.0607 3.34595C9.97061 10.2207 12.6303 17.1174 18.0011 18.7503Z" fill="#88889B"/>
</svg>
