<svg width="283" height="46" viewBox="0 0 283 46" fill="none" xmlns="http://www.w3.org/2000/svg">
<path d="M89.4604 27.23L89.7299 36.392H81.8253L71.5405 18.4721H71.0913L71.0464 26.197L71.3159 36.392H64.7138L65.0731 27.8587L64.7138 7.4237H72.5734L82.9032 25.3437H83.3524L83.1727 7.69317L89.8646 7.28897L89.4604 27.23Z" fill="#88889B"/>
<path d="M112.799 27.0503L101.032 27.1401C101.241 28.6971 101.78 29.8498 102.648 30.5984C103.517 31.3469 104.744 31.7212 106.331 31.7212C107.918 31.7212 110.014 31.2571 112.619 30.3289L113.158 30.6882L112.08 35.7633C109.685 36.5118 107.514 36.8861 105.568 36.8861C102.124 36.8861 99.4148 35.913 97.4386 33.9668C95.4924 32.0206 94.5193 29.3408 94.5193 25.9275C94.5193 22.5142 95.4625 19.8344 97.3488 17.8882C99.2351 15.9121 101.795 14.924 105.029 14.924C107.813 14.924 109.969 15.6726 111.496 17.1696C113.053 18.6667 113.832 20.7476 113.832 23.4124C113.832 24.2807 113.742 25.1939 113.562 26.1521L112.799 27.0503ZM107.679 22.6489C107.679 20.583 106.78 19.55 104.984 19.55C103.966 19.55 103.128 19.8943 102.469 20.583C101.81 21.2417 101.361 22.1998 101.121 23.4573L107.589 23.2777L107.679 22.6489Z" fill="#88889B"/>
<path d="M125.13 17.9781L127.375 21.8854L129.711 17.7086L130.879 15.4181H137.032L131.193 25.7479L137.211 36.1675L129.711 36.7064L128.633 33.8321L126.387 29.79L123.872 34.1464L122.839 36.392H116.641L122.48 25.8826L116.596 15.5528L124.187 15.2384L125.13 17.9781Z" fill="#88889B"/>
<path d="M150.58 31.1822C151.478 31.1822 152.436 30.9577 153.454 30.5085L153.948 31.0475L153.274 35.1345C151.777 35.9729 150.22 36.4968 148.603 36.7064C146.418 36.5867 144.756 36.0178 143.618 34.9998C142.48 33.9518 141.911 32.5296 141.911 30.7331L142.136 26.6461L142.091 19.7745H139.307L139.082 19.4152L139.396 15.5528H142.046V11.9598L148.558 10.0286L149.053 10.4777L148.873 15.5528H153.813L154.038 15.957L153.723 19.7745H148.738L148.469 28.8468C148.469 29.7151 148.618 30.3289 148.918 30.6882C149.247 31.0176 149.801 31.1822 150.58 31.1822Z" fill="#88889B"/>
<path d="M170.564 7.37879C173.678 7.37879 176.073 8.15727 177.75 9.71422C179.456 11.2712 180.31 13.4868 180.31 16.3612C180.31 18.6068 179.801 20.583 178.783 22.2896C177.765 23.9663 176.327 25.2688 174.471 26.197C172.615 27.1252 170.459 27.5893 168.004 27.5893H165.399L165.668 36.392H158.348L158.752 27.8138L158.348 7.4237L170.564 7.37879ZM169.306 22.3345C170.444 21.9453 171.282 21.3315 171.821 20.4931C172.39 19.6248 172.675 18.4871 172.675 17.0798C172.675 15.5827 172.3 14.4749 171.552 13.7563C170.833 13.0377 169.695 12.6485 168.138 12.5886L165.713 12.7233L165.489 22.1549L169.306 22.3345Z" fill="#88889B"/>
<path d="M191.462 27.0952L191.776 36.392H184.68L185.039 27.7689L184.77 5.35774L191.821 4.86371L191.462 27.0952Z" fill="#88889B"/>
<path d="M206.933 14.924C209.419 14.924 211.35 15.463 212.727 16.5409C214.104 17.5888 214.793 19.1009 214.793 21.077C214.793 21.7656 214.763 22.5591 214.703 23.4573C214.643 24.3556 214.598 25.2089 214.568 26.0173C214.419 28.1731 214.344 29.6552 214.344 30.4636C214.344 30.8828 214.404 31.1822 214.524 31.3619C214.673 31.5415 214.913 31.6314 215.242 31.6314C215.512 31.6314 215.841 31.5715 216.23 31.4517L216.724 31.8559L216.095 35.5836C215.107 36.2723 213.895 36.6765 212.458 36.7963C211.559 36.7064 210.796 36.392 210.167 35.8531C209.538 35.3142 209.089 34.5506 208.82 33.5626H208.505C207.008 35.1495 205.481 36.2423 203.924 36.8412C201.709 36.8112 199.957 36.2124 198.67 35.0447C197.412 33.877 196.783 32.2901 196.783 30.284C196.783 27.2 198.4 25.3886 201.634 24.8496L208.281 23.7268V22.4244C208.281 21.4962 208.071 20.8375 207.652 20.4482C207.263 20.029 206.619 19.8195 205.721 19.8195C204.823 19.8195 203.849 20.0141 202.801 20.4033C201.783 20.7926 200.601 21.4064 199.253 22.2447L198.804 21.9303L197.996 17.3044C199.343 16.5558 200.795 15.972 202.352 15.5528C203.909 15.1336 205.436 14.924 206.933 14.924ZM204.418 27.8138C203.969 27.9036 203.625 28.0833 203.385 28.3528C203.176 28.6222 203.071 29.0264 203.071 29.5654C203.071 30.284 203.251 30.8379 203.61 31.2271C203.999 31.6164 204.523 31.811 205.182 31.811C206.14 31.811 207.158 31.302 208.236 30.284L208.281 27.0503L204.418 27.8138Z" fill="#88889B"/>
<path d="M234.029 23.8616C234.089 21.7956 233.251 20.7626 231.514 20.7626C230.466 20.7626 229.328 21.2117 228.101 22.11V27.0952L228.415 36.392H221.319L221.633 27.8138L221.364 15.8223L228.146 15.2833V18.3823H228.415C230.032 16.8553 231.828 15.7624 233.805 15.1037C236.05 15.1037 237.757 15.6277 238.925 16.6756C240.122 17.6936 240.706 19.1607 240.676 21.077L240.496 27.0952L240.766 36.392H233.67L234.029 23.8616Z" fill="#88889B"/>
<path d="M263.633 27.0503L251.866 27.1401C252.076 28.6971 252.615 29.8498 253.483 30.5984C254.351 31.3469 255.579 31.7212 257.166 31.7212C258.753 31.7212 260.849 31.2571 263.454 30.3289L263.993 30.6882L262.915 35.7633C260.519 36.5118 258.349 36.8861 256.402 36.8861C252.959 36.8861 250.249 35.913 248.273 33.9668C246.327 32.0206 245.354 29.3408 245.354 25.9275C245.354 22.5142 246.297 19.8344 248.183 17.8882C250.07 15.9121 252.63 14.924 255.863 14.924C258.648 14.924 260.804 15.6726 262.331 17.1696C263.888 18.6667 264.666 20.7476 264.666 23.4124C264.666 24.2807 264.576 25.1939 264.397 26.1521L263.633 27.0503ZM258.513 22.6489C258.513 20.583 257.615 19.55 255.819 19.55C254.801 19.55 253.962 19.8943 253.303 20.583C252.645 21.2417 252.196 22.1998 251.956 23.4573L258.423 23.2777L258.513 22.6489Z" fill="#88889B"/>
<path d="M278.839 31.1822C279.737 31.1822 280.695 30.9577 281.713 30.5085L282.207 31.0475L281.534 35.1345C280.036 35.9729 278.48 36.4968 276.863 36.7064C274.677 36.5867 273.015 36.0178 271.877 34.9998C270.74 33.9518 270.171 32.5296 270.171 30.7331L270.395 26.6461L270.35 19.7745H267.566L267.341 19.4152L267.656 15.5528H270.306V11.9598L276.818 10.0286L277.312 10.4777L277.132 15.5528H282.073L282.297 15.957L281.983 19.7745H276.997L276.728 28.8468C276.728 29.7151 276.878 30.3289 277.177 30.6882C277.506 31.0176 278.06 31.1822 278.839 31.1822Z" fill="#88889B"/>
<path fill-rule="evenodd" clip-rule="evenodd" d="M11.1404 8.91232C7.97285 12.5098 6.19688 16.984 5.34797 20.3968L2.92664 19.7945C3.83619 16.1379 5.753 11.2553 9.26767 7.26348C12.813 3.23689 17.9759 0.134705 25.2389 0.134705C32.4903 0.134705 37.8688 3.22667 41.5264 7.24853C44.2268 10.2178 45.9988 13.7015 46.9228 16.8484L49.2435 13.1896L51.3505 14.5261L46.7577 21.767L39.1304 17.438L40.362 15.268L44.5573 17.6491C43.7463 14.8339 42.1494 11.642 39.6805 8.92727C36.4361 5.3598 31.7035 2.62982 25.2389 2.62982C18.7859 2.62982 14.2772 5.34959 11.1404 8.91232Z" fill="#88889B"/>
<path fill-rule="evenodd" clip-rule="evenodd" d="M39.7042 36.2821C42.7857 32.6851 44.515 28.2092 45.3419 24.7925L47.767 25.3794C46.8829 29.0322 45.0192 33.9131 41.5991 37.9054C38.1486 41.9331 33.1138 45.0469 26.0231 45.0469C18.9444 45.0469 13.6997 41.9439 10.1395 37.9205C7.53242 34.9741 5.8162 31.5238 4.9123 28.4006L2.70392 31.979L0.580597 30.6686L5.06932 23.3952L12.5365 27.751L11.2793 29.9063L7.26896 27.5669C8.06133 30.3796 9.61415 33.5615 12.0081 36.267C15.1634 39.8329 19.7566 42.5518 26.0231 42.5518C32.2778 42.5518 36.6531 39.8437 39.7042 36.2821Z" fill="#88889B"/>
</svg>
