<svg width="182" height="33" viewBox="0 0 182 33" fill="none" xmlns="http://www.w3.org/2000/svg">
<path d="M44.1625 5.93668H52.1968V31.7425H57.3928V5.93668H65.4708V1.17723H44.1625V5.93668Z" fill="#88889B"/>
<path d="M72.0259 16.4598C72.0259 14.8879 72.2734 13.447 72.7682 12.137C73.2922 10.798 74.02 9.64817 74.9515 8.68755C75.883 7.69781 76.9746 6.94096 78.2263 6.41698C79.5071 5.8639 80.919 5.58736 82.4618 5.58736C83.9755 5.58736 85.3582 5.8639 86.6099 6.41698C87.8908 6.94096 88.9969 7.69781 89.9284 8.68755C90.8599 9.64817 91.5731 10.798 92.068 12.137C92.5629 13.447 92.8103 14.8879 92.8103 16.4598C92.8103 18.0318 92.5483 19.4873 92.0243 20.8263C91.5295 22.1362 90.8163 23.2861 89.8848 24.2758C88.9533 25.2364 87.8471 25.9933 86.5663 26.5464C85.3145 27.0703 83.9318 27.3323 82.4181 27.3323C80.9044 27.3323 79.5071 27.0703 78.2263 26.5464C76.9746 25.9933 75.883 25.2364 74.9515 24.2758C74.02 23.2861 73.2922 22.1362 72.7682 20.8263C72.2734 19.4873 72.0259 18.0318 72.0259 16.4598ZM66.5679 16.4598C66.5679 18.7304 66.9609 20.8409 67.7468 22.7912C68.5328 24.7125 69.6389 26.4008 71.0653 27.8563C72.4917 29.2827 74.1655 30.4034 76.0868 31.2185C78.008 32.0044 80.1185 32.3974 82.4181 32.3974C84.7178 32.3974 86.8282 32.0044 88.7495 31.2185C90.6998 30.4034 92.3882 29.2827 93.8146 27.8563C95.241 26.4008 96.3471 24.7125 97.1331 22.7912C97.9191 20.8409 98.312 18.7304 98.312 16.4598C98.312 14.1893 97.9191 12.0934 97.1331 10.1721C96.3471 8.22179 95.2264 6.54798 93.7709 5.15071C92.3445 3.72433 90.6562 2.61816 88.7058 1.8322C86.7846 1.04624 84.6887 0.653259 82.4181 0.653259C80.1476 0.653259 78.0517 1.04624 76.1304 1.8322C74.2092 2.61816 72.5208 3.72433 71.0653 5.15071C69.6389 6.54798 68.5328 8.22179 67.7468 10.1721C66.9609 12.0934 66.5679 14.1893 66.5679 16.4598Z" fill="#88889B"/>
<path d="M104.633 1.17723V31.7425H109.785V1.17723H104.633ZM107.689 5.71835H113.846C115.04 5.71835 116.073 5.90757 116.946 6.28599C117.82 6.66442 118.504 7.2175 118.998 7.94525C119.493 8.67299 119.741 9.58995 119.741 10.6961C119.741 11.7732 119.493 12.6901 118.998 13.447C118.504 14.1747 117.82 14.7278 116.946 15.1062C116.073 15.4556 115.04 15.6302 113.846 15.6302H107.689V20.1713H113.846C116.088 20.1713 118.023 19.7929 119.653 19.0361C121.284 18.2501 122.55 17.1585 123.452 15.7612C124.355 14.3348 124.806 12.6465 124.806 10.6961C124.806 8.74576 124.355 7.0574 123.452 5.63102C122.55 4.20465 121.284 3.11303 119.653 2.35618C118.023 1.57021 116.088 1.17723 113.846 1.17723H107.689V5.71835Z" fill="#88889B"/>
<path d="M130.968 1.17723V21.6996C130.968 23.388 131.23 24.9017 131.754 26.2407C132.307 27.5798 133.078 28.715 134.068 29.6466C135.058 30.5781 136.237 31.2913 137.605 31.7861C138.973 32.281 140.472 32.5284 142.103 32.5284C143.733 32.5284 145.232 32.281 146.6 31.7861C147.968 31.2913 149.147 30.5781 150.137 29.6466C151.127 28.715 151.883 27.5798 152.407 26.2407C152.96 24.9017 153.237 23.388 153.237 21.6996V1.17723H148.085V21.4813C148.085 22.733 147.852 23.8392 147.386 24.7998C146.949 25.7313 146.28 26.459 145.377 26.983C144.504 27.507 143.412 27.769 142.103 27.769C140.793 27.769 139.686 27.507 138.784 26.983C137.911 26.459 137.241 25.7313 136.775 24.7998C136.339 23.8392 136.12 22.733 136.12 21.4813V1.17723H130.968Z" fill="#88889B"/>
<path d="M161.151 1.17723V31.7425H166.304V1.17723H161.151ZM164.208 5.71835H170.364C171.558 5.71835 172.591 5.90757 173.465 6.28599C174.338 6.66442 175.022 7.2175 175.517 7.94525C176.012 8.67299 176.259 9.58995 176.259 10.6961C176.259 11.7732 176.012 12.6901 175.517 13.447C175.022 14.1747 174.338 14.7278 173.465 15.1062C172.591 15.4556 171.558 15.6302 170.364 15.6302H164.208V20.1713H170.364C172.606 20.1713 174.542 19.7929 176.172 19.0361C177.802 18.2501 179.068 17.1585 179.971 15.7612C180.873 14.3348 181.324 12.6465 181.324 10.6961C181.324 8.74576 180.873 7.0574 179.971 5.63102C179.068 4.20465 177.802 3.11303 176.172 2.35618C174.542 1.57021 172.606 1.17723 170.364 1.17723H164.208V5.71835Z" fill="#88889B"/>
<path fill-rule="evenodd" clip-rule="evenodd" d="M14.6356 1.91467H0.148438V32.4432H32.585V1.91467H18.0979L25.455 10.0237H19.2289V28.6271H13.5048V10.0237H7.27854L14.6356 1.91467Z" fill="#88889B"/>
</svg>
